<svg xmlns="http://www.w3.org/2000/svg" width="28" height="28" viewBox="0 0 28 28">
  <rect id="Retângulo_1093" data-name="Retângulo 1093" width="28" height="28" rx="8" fill="#ff4651"/>
  <path id="heart" d="M13.589,1.917A4.97,4.97,0,0,0,9.318,4.48,4.97,4.97,0,0,0,5.046,1.917,5.281,5.281,0,0,0,0,7.392c0,3.531,3.717,7.387,6.834,10a3.863,3.863,0,0,0,4.97,0c3.117-2.615,6.834-6.471,6.834-10a5.281,5.281,0,0,0-5.048-5.475ZM10.8,16.206a2.309,2.309,0,0,1-2.974,0c-3.99-3.348-6.278-6.56-6.278-8.814A3.727,3.727,0,0,1,5.046,3.47,3.727,3.727,0,0,1,8.541,7.392a.777.777,0,1,0,1.553,0A3.727,3.727,0,0,1,13.589,3.47a3.727,3.727,0,0,1,3.494,3.922c0,2.254-2.288,5.466-6.278,8.811Z" transform="translate(4.682 4.083)" fill="#fff"/>
</svg>
