<svg xmlns="http://www.w3.org/2000/svg" width="16.381" height="16.382" viewBox="0 0 16.381 16.382">
  <path id="comments" d="M16.381,10.921v3.413a2.048,2.048,0,0,1-2.048,2.048H10.921A5.46,5.46,0,0,1,6.2,13.651a7.486,7.486,0,0,0,1.53-.169,4.087,4.087,0,0,0,3.193,1.534h3.413a.683.683,0,0,0,.683-.683V10.921a4.087,4.087,0,0,0-1.537-3.193,7.486,7.486,0,0,0,.172-1.53A5.46,5.46,0,0,1,16.381,10.921ZM12.27,6.587A6.143,6.143,0,0,0,5.7.015,6.428,6.428,0,0,0,0,6.343v3.44c0,1.728,1.029,2.5,2.048,2.5H5.938a6.429,6.429,0,0,0,6.332-5.7ZM9.521,2.765a4.79,4.79,0,0,1,1.387,3.727,5.026,5.026,0,0,1-4.97,4.429H2.048c-.633,0-.683-.87-.683-1.137V6.343a5.025,5.025,0,0,1,4.43-4.966q.17-.012.34-.012a4.786,4.786,0,0,1,3.387,1.4Z" transform="translate(0 0.001)" fill="#fff"/>
</svg>
