<svg xmlns="http://www.w3.org/2000/svg" width="16.122" height="16.122" viewBox="0 0 16.122 16.122">
  <path id="Caminho_403" data-name="Caminho 403" d="M13.278,7.9a.672.672,0,0,0-.95,0L10.591,9.641,8.854,7.9a.672.672,0,1,0-.95.95l1.737,1.737L7.9,12.328a.672.672,0,1,0,.95.95l1.737-1.737,1.737,1.737a.672.672,0,1,0,.95-.95l-1.737-1.737,1.737-1.737A.672.672,0,0,0,13.278,7.9Z" transform="translate(-2.53 -2.53)" fill="#ff4651"/>
  <path id="Caminho_404" data-name="Caminho 404" d="M8.061,0a8.061,8.061,0,1,0,8.061,8.061A8.061,8.061,0,0,0,8.061,0Zm0,14.779a6.718,6.718,0,1,1,6.718-6.718A6.718,6.718,0,0,1,8.061,14.779Z" transform="translate(0 0)" fill="#ff4651"/>
</svg>
