<svg xmlns="http://www.w3.org/2000/svg" width="16.122" height="16.122" viewBox="0 0 16.122 16.122">
  <path id="Caminho_407" data-name="Caminho 407" d="M8.061,0a8.061,8.061,0,1,0,8.061,8.061A8.061,8.061,0,0,0,8.061,0Zm0,14.779a6.718,6.718,0,1,1,6.718-6.718A6.718,6.718,0,0,1,8.061,14.779Z" transform="translate(0 0)" fill="#babdc5"/>
  <path id="Caminho_408" data-name="Caminho 408" d="M11.344,10h-.672a.672.672,0,0,0,0,1.344h.672v4.031a.672.672,0,0,0,1.344,0V11.344A1.344,1.344,0,0,0,11.344,10Z" transform="translate(-3.282 -3.282)" fill="#babdc5"/>
  <circle id="Elipse_20" data-name="Elipse 20" cx="1.008" cy="1.008" r="1.008" transform="translate(7.053 3.359)" fill="#babdc5"/>
</svg>
