<svg xmlns="http://www.w3.org/2000/svg" width="16.122" height="16.122" viewBox="0 0 16.122 16.122">
  <path id="Caminho_404" data-name="Caminho 404" d="M8.061,0a8.061,8.061,0,1,0,8.061,8.061A8.061,8.061,0,0,0,8.061,0Zm0,14.779a6.718,6.718,0,1,1,6.718-6.718A6.718,6.718,0,0,1,8.061,14.779Z" transform="translate(0 0)" fill="#08d37d"/>
  <g id="check_1_" data-name="check (1)" transform="translate(3.907 5.004)">
    <path id="Caminho_400" data-name="Caminho 400" d="M3.66,78.688a1.115,1.115,0,0,1-.79-.327L1.193,76.684a.658.658,0,0,1,0-.931h0a.658.658,0,0,1,.931,0L3.66,77.29l4.525-4.525a.658.658,0,0,1,.931,0h0a.658.658,0,0,1,0,.931L4.45,78.361A1.115,1.115,0,0,1,3.66,78.688Z" transform="translate(-1 -72.573)" fill="#08d37d"/>
  </g>
</svg>
