<svg xmlns="http://www.w3.org/2000/svg" width="16.122" height="16.122" viewBox="0 0 16.122 16.122">
  <path id="Caminho_405" data-name="Caminho 405" d="M8.061,0a8.061,8.061,0,1,0,8.061,8.061A8.061,8.061,0,0,0,8.061,0Zm0,14.779a6.718,6.718,0,1,1,6.718-6.718A6.718,6.718,0,0,1,8.061,14.779Z" transform="translate(0 0)" fill="#fcc12b"/>
  <path id="Caminho_406" data-name="Caminho 406" d="M11.672,5A.672.672,0,0,0,11,5.672v5.374a.672.672,0,0,0,1.344,0V5.672A.672.672,0,0,0,11.672,5Z" transform="translate(-3.611 -1.641)" fill="#fcc12b"/>
  <rect id="Retângulo_974" data-name="Retângulo 974" width="1.268" height="1.268" rx="0.634" transform="translate(7.386 11.466)" fill="#fcc12b"/>
</svg>
